<svg xmlns="http://www.w3.org/2000/svg" viewBox="0 0 200 200">
  <defs>
    <linearGradient id="bg" x1="0" y1="0" x2="1" y2="1">
      <stop offset="0%" stop-color="#1e3a8a"/>
      <stop offset="60%" stop-color="#0f172a"/>
      <stop offset="100%" stop-color="#020617"/>
    </linearGradient>
    <linearGradient id="gold" x1="0" y1="0" x2="0" y2="1">
      <stop offset="0%" stop-color="#fde68a"/>
      <stop offset="100%" stop-color="#f59e0b"/>
    </linearGradient>
  </defs>
  <rect width="200" height="200" rx="36" fill="url(#bg)"/>
  <rect x="4" y="4" width="192" height="192" rx="32" fill="none" stroke="url(#gold)" stroke-width="1.5" opacity="0.4"/>
  <g transform="translate(100, 78)">
    <circle r="34" fill="#f8fafc"/>
    <polygon points="0,-14 13,-4.5 8,10 -8,10 -13,-4.5" fill="#0f172a"/>
    <polygon points="0,-26 9,-21 6,-14" fill="#0f172a"/>
    <polygon points="23,-9 26,-1 19,3" fill="#0f172a"/>
    <polygon points="18,16 22,21 14,22" fill="#0f172a"/>
    <polygon points="-18,16 -14,21 -22,22" fill="#0f172a"/>
    <polygon points="-23,-9 -19,3 -26,-1" fill="#0f172a"/>
  </g>
  <text x="100" y="146" text-anchor="middle" font-family="Arial Black, Impact, sans-serif" font-size="40" font-weight="900" fill="#f8fafc" letter-spacing="-1">2026</text>
  <text x="100" y="170" text-anchor="middle" font-family="Arial, sans-serif" font-size="10" font-weight="bold" fill="url(#gold)" letter-spacing="4">WORLD CUP</text>
  <text x="100" y="186" text-anchor="middle" font-family="Arial, sans-serif" font-size="7.5" font-weight="bold" fill="#94a3b8" letter-spacing="2.5">USA · CAN · MEX</text>
</svg>
